<?xml version="1.0" encoding="UTF-8"?>
<svg id="Layer_2" data-name="Layer 2" xmlns="http://www.w3.org/2000/svg" viewBox="0 0 65.17 65.19">
  <defs>
    <style>
      .cls-1 {
        fill: #5f5ba5;
      }
    </style>
  </defs>
  <g id="Layer_1-2" data-name="Layer 1">
    <g>
      <path class="cls-1" d="m32.59,65.19c-8.71,0-16.89-3.39-23.05-9.55C3.39,49.48,0,41.3,0,32.59S3.39,15.7,9.55,9.55C15.7,3.39,23.89,0,32.59,0s16.89,3.39,23.05,9.55c12.71,12.71,12.71,33.39,0,46.09-6.16,6.16-14.34,9.55-23.05,9.55Zm0-56.69c-6.44,0-12.49,2.51-17.04,7.06-4.55,4.55-7.06,10.6-7.06,17.04s2.51,12.49,7.06,17.04c4.55,4.55,10.6,7.06,17.04,7.06s12.49-2.51,17.04-7.06c9.4-9.4,9.4-24.69,0-34.08-4.55-4.55-10.6-7.06-17.04-7.06Z"/>
      <rect class="cls-1" x="38.96" y="28.1" width="8.49" height="30.21" transform="translate(-17.9 43.2) rotate(-45)"/>
      <path class="cls-1" d="m24,45.43c-1.09,0-2.17-.41-3-1.24-1.66-1.66-1.66-4.35,0-6.01l17.18-17.18c1.66-1.66,4.35-1.66,6.01,0,1.66,1.66,1.66,4.35,0,6.01l-17.18,17.18c-.83.83-1.92,1.24-3,1.24Z"/>
    </g>
  </g>
</svg>